<svg xmlns="http://www.w3.org/2000/svg" viewBox="0 0 64 64" role="img" aria-label="Dentista+">
  <defs>
    <linearGradient id="df-ring" x1="8" y1="6" x2="56" y2="58" gradientUnits="userSpaceOnUse">
      <stop stop-color="#38bdf8"/>
      <stop offset="0.45" stop-color="#2563eb"/>
      <stop offset="1" stop-color="#14b8a6"/>
    </linearGradient>
    <linearGradient id="df-glow" x1="18" y1="14" x2="46" y2="42" gradientUnits="userSpaceOnUse">
      <stop stop-color="#fff" stop-opacity="0.55"/>
      <stop offset="1" stop-color="#fff" stop-opacity="0"/>
    </linearGradient>
    <filter id="df-soft" x="-20%" y="-20%" width="140%" height="140%">
      <feGaussianBlur stdDeviation="1.2" result="blur"/>
      <feMerge>
        <feMergeNode in="blur"/>
        <feMergeNode in="SourceGraphic"/>
      </feMerge>
    </filter>
  </defs>
  <rect width="64" height="64" rx="18" fill="#0b1220"/>
  <rect x="3" y="3" width="58" height="58" rx="16" fill="none" stroke="url(#df-ring)" stroke-width="3"/>
  <ellipse cx="26" cy="22" rx="14" ry="10" fill="url(#df-glow)"/>
  <path
    d="M22 18h8c9.5 0 14.5 5.2 14.5 12.2S39.5 44 30 44H22V18zm6 6v14h4c5.2 0 8.5-3.1 8.5-7.2S37.2 24 32 24h-4z"
    fill="#f8fafc"
    filter="url(#df-soft)"
  />
  <path
    d="M44 40.5c0 3.6 2.9 6.5 6.5 6.5S57 44.1 57 40.5 54.1 34 50.5 34 44 36.9 44 40.5z"
    fill="#0ea5e9"
  />
  <path d="M50.5 37.8v5.4M47.8 40.5h5.4" stroke="#fff" stroke-width="2" stroke-linecap="round"/>
</svg>
